<svg width="103" height="26" viewBox="0 0 103 26" fill="none" xmlns="http://www.w3.org/2000/svg">
<path d="M16.1195 10.564H0L1.45577 13.9061H16.793C19.3573 13.9061 21.3708 15.7496 21.3708 18.0926C21.3708 20.4356 19.4368 22.2031 16.9519 22.2031H10.2838V15.2853H5.745V25.738H17.6617C22.5157 25.738 25.8692 22.5493 25.8692 18.3234C25.8692 15.25 23.7511 10.564 16.1195 10.564ZM10.2824 3.53355H16.2017C18.3715 3.53355 20.0294 5.03221 20.0294 6.95306C20.0294 7.91959 19.6487 8.79653 19.0296 9.4427C19.8649 9.58795 20.6499 9.79972 21.375 10.078C21.9091 10.283 22.4125 10.5233 22.8838 10.7988C23.9129 9.72913 24.4888 8.26304 24.4888 6.68428C24.4888 2.88059 21.2523 0 17.3466 0H5.745V9.20378H10.2824V3.53355ZM85.2143 18.8922L79.4525 6.82953H74.5595L84.227 25.5371H86.2392L95.9067 6.82953H91.0137L85.2129 18.8922H85.2143ZM63.5116 6.33133C57.3162 6.33133 52.9753 10.788 52.9753 16.165C52.9753 21.8121 57.7108 25.9986 63.6691 25.9986C68.088 25.9986 72.1137 23.6556 73.4942 20.1981L69.1534 19.9673C68.3641 21.542 66.1149 22.4257 63.8267 22.4257C60.5122 22.4257 58.065 20.5049 57.4737 17.4709H74.0464C74.0464 11.2862 70.0611 6.33133 63.5102 6.33133H63.5116ZM57.4737 14.4369C58.065 11.7477 60.1566 9.90424 63.5116 9.90424C66.6295 9.90424 68.7992 11.5563 69.4699 14.4369H57.4737ZM39.5206 6.33133C33.3252 6.33133 28.9844 10.788 28.9844 16.165C28.9844 21.8121 33.7198 25.9986 39.6782 25.9986C44.0971 25.9986 48.1228 23.6556 49.5032 20.1981L45.1624 19.9673C44.3732 21.542 42.124 22.4257 39.8357 22.4257C36.5212 22.4257 34.074 20.5049 33.4828 17.4709H50.0554C50.0554 11.2862 46.0702 6.33133 39.5192 6.33133H39.5206ZM33.4828 14.4369C34.074 11.7477 36.1656 9.90424 39.5206 9.90424C42.6385 9.90424 44.8082 11.5563 45.4789 14.4369H33.4828Z" fill="#1D1D1D"/>
</svg>
